{"title":"Gotham S02 720p BluRay HEVC 2CH x265","uid":15454210,"size":8411461660,"categoryP":"video","categoryS":"hd___tv_shows","magnet":"?xt=urn:btih:3acc5d5b5fe8f35d1ef65bd9e6c51be997b29afa&amp;dn=Gotham+S02+720p+BluRay+HEVC+2CH+x265&amp;tr=udp%3A%2F%2Ftracker.leechers-paradise.org%3A6969&amp;tr=udp%3A%2F%2Fzer0day.ch%3A1337&amp;tr=udp%3A%2F%2Fopen.demonii.com%3A1337&amp;tr=udp%3A%2F%2Ftracker.coppersurfer.tk%3A6969&amp;tr=udp%3A%2F%2Fexodus.desync.com%3A6969","seeders":1,"leechers":1,"uploader":"nayhtut","files":22,"time":1469968866,"description":"[Screenshots]\r\n \nhttps://s32.postimg.org/dx899u5yt/Gotham_S02_E18_720p_Blu_Ray_HEVC_2_CH_x265_004.jpg \nhttps://s32.postimg.org/cw80kpoz9/Gotham_S02_E19_720p_Blu_Ray_HEVC_2_CH_x265_004.jpg \nhttps://s32.postimg.org/ty0umt3ud/Gotham_S02_E13_720p_Blu_Ray_HEVC_2_CH_x265_003.jpg \nhttps://s32.postimg.org/uotksl67p/Gotham_S02_E09_720p_Blu_Ray_HEVC_2_CH_x265_005.jpg \nhttps://s32.postimg.org/j0ziy1h2t/Gotham_S02_E09_720p_Blu_Ray_HEVC_2_CH_x265_002.jpg \nhttps://s32.postimg.org/4vtpw881h/Gotham_S02_E07_720p_Blu_Ray_HEVC_2_CH_x265_006.jpg \nhttps://s32.postimg.org/83y799ub9/Gotham_S02_E03_720p_Blu_Ray_HEVC_2_CH_x265_006.jpg \nhttps://s32.postimg.org/kwmb975x1/Gotham_S02_E01_720p_Blu_Ray_HEVC_2_CH_x265_005.jpg \nhttps://s32.postimg.org/p75kij0dx/Gotham_S02_E01_720p_Blu_Ray_HEVC_2_CH_x265_002.jpg\r\n\r\n\r\nSource:  Gotham S02 720p BluRay X264-REWARD (Size: 48.55 GB)\r\n\r\nContains:  Gotham Season Two - Episode 01 to 22\r\n\r\n\r\nFormat                                   : Matroska\r\nFormat version                           : Version 4 / Version 2\r\nFile size                                : 7.83 GiB\r\nDuration                                 : Various\r\nOverall bit rate                         : 1 159 Kbps\r\nWriting application                      : Lavf57.25.100\r\nWriting library                          : Lavf57.25.100\r\n\r\nVideo\r\n\r\nID                                       : 1\r\nFormat                                   : V_MPEGH/ISO/HEVC\r\nCodec ID                                 : V_MPEGH/ISO/HEVC\r\nDuration                                 : 44mn 6s\r\nBit rate                                 : 816 Kbps\r\nWidth                                    : 1 280 pixels\r\nHeight                                   : 720 pixels\r\nDisplay aspect ratio                     : 16:9\r\nFrame rate                               : 25.000 fps\r\nBits/(Pixel*Frame)                       : 0.035\r\nStream size                              : 257 MiB (70%)\r\nWriting library                          : Lavc57.48.101 libx265\r\nDefault                                  : Yes\r\nForced                                   : No\r\nNUMBER_OF_FRAMES                         : 63451\r\nNUMBER_OF_BYTES                          : 1845080168\r\n_STATISTICS_WRITING_APP                  : no_variable_data\r\n_STATISTICS_WRITING_DATE_UTC             : 1970-01-01 00:00:00\r\n_STATISTICS_TAGS                         : BPS DURATION NUMBER_OF_FRAMES NUMBER_OF_BYTES\r\n\r\nAudio\r\n\r\nID                                       : 2\r\nFormat                                   : AC-3\r\nFormat/Info                              : Audio Coding 3\r\nMode extension                           : CM (complete main)\r\nFormat settings, Endianness              : Big\r\nCodec ID                                 : A_AC3\r\nDuration                                 : 44mn 6s\r\nBit rate mode                            : Constant\r\nBit rate                                 : 320 Kbps\r\nChannel(s)                               : 2 channels\r\nChannel positions                        : Front: L R\r\nSampling rate                            : 48.0 KHz\r\nBit depth                                : 16 bits\r\nCompression mode                         : Lossy\r\nStream size                              : 101 MiB (28%)\r\nWriting library                          : Lavc57.24.102 ac3\r\nLanguage                                 : English\r\nDefault                                  : Yes\r\nForced                                   : No\r\nNUMBER_OF_FRAMES                         : 248104\r\nNUMBER_OF_BYTES                          : 499185248\r\n_STATISTICS_WRITING_APP                  : no_variable_data\r\n_STATISTICS_WRITING_DATE_UTC             : 1970-01-01 00:00:00\r\n_STATISTICS_TAGS                         : BPS DURATION NUMBER_OF_FRAMES NUMBER_OF_BYTES\r\n\r\nText\r\n\r\nID                                       : 3\r\nFormat                                   : ASS\r\nCodec ID                                 : S_TEXT/ASS\r\nCodec ID/Info                            : Advanced Sub Station Alpha\r\nCompression mode                         : Lossless\r\nWriting library                          : Lavc57.48.101 ssa\r\nLanguage                                 : English\r\nDefault                                  : No\r\nForced                                   : No\r\nDURATION                                 : 00:44:04.235000000\r\nNUMBER_OF_FRAMES                         : 533\r\nNUMBER_OF_BYTES                          : 18811\r\n_STATISTICS_WRITING_APP                  : no_variable_data\r\n_STATISTICS_WRITING_DATE_UTC             : 1970-01-01 00:00:00\r\n_STATISTICS_TAGS                         : BPS DURATION NUMBER_OF_FRAMES NUMBER_OF_BYTES\r\n\r\nMenu\r\n\r\n00:00:00.000                             : :00:00:00.000\r\n00:00:44.544                             : :00:00:44.544\r\n00:08:53.867                             : :00:08:53.867\r\n00:15:57.290                             : :00:15:57.290\r\n00:23:47.885                             : :00:23:47.885\r\n00:29:37.067                             : :00:29:37.067\r\n00:36:11.878                             : :00:36:11.878\r\n00:43:27.772                             : :00:43:27.772\r\n\r\n\r\n__--__--__--__--__--__--__--__--__--__--__--__--__--\r\n\r\n\r\nIMDb: http://www.imdb.com/title/tt3749900\r\n\r\n\r\n__--__--__--__--__--__--__--__--__--__--__--__--__--\r\n\r\n\r\nAfter adding torrent with magnet link,\r\n\r\nplease add this  following trackers list to the torrent for better seeds.\r\n\r\n\r\nudp://tracker.coppersurfer.tk:6969/announce\r\n\r\nudp://tracker.opentrackr.org:1337/announce\r\n \nhttp://tracker.baravik.org:6970/announce\r\n \nhttp://tracker2.wasabii.com.tw:6969/announce\r\n\r\nudp://9.rarbg.me:2710/announce\r\n\r\n\r\n__--__--__--__--__--__--__--__--__--__--__--__--__--\r\n\r\n\r\nEnjoy!","torrent":{"xt":"urn:btih:3acc5d5b5fe8f35d1ef65bd9e6c51be997b29afa","amp;dn":"Gotham+S02+720p+BluRay+HEVC+2CH+x265","amp;tr":["udp%3A%2F%2Ftracker.leechers-paradise.org%3A6969","udp%3A%2F%2Fzer0day.ch%3A1337","udp%3A%2F%2Fopen.demonii.com%3A1337","udp%3A%2F%2Ftracker.coppersurfer.tk%3A6969","udp%3A%2F%2Fexodus.desync.com%3A6969"],"infoHash":"3acc5d5b5fe8f35d1ef65bd9e6c51be997b29afa","infoHashBuffer":{"type":"Buffer","data":[58,204,93,91,95,232,243,93,30,246,91,217,230,197,27,233,151,178,154,250]},"announce":[],"urlList":[]}}